# xmcd CD database file
#
# Track frame offsets:
#	150
#	11510
#	36192
#	52897
#	62000
#	81007
#	91265
#	107882
#	124745
#	138047
#	148215
#	171037
#	183175
#	197745
#
# Disc length: 2927 seconds
#
# Revision: 0
# Processed by: cddbd v1.5.1PL0 Copyright (c) Steve Scherf et al.
# Submitted via: CDex 1.51
#
DISCID=b50b6d0e
DTITLE=CADDILAC - Blue Moon
DYEAR=1900
DGENRE=Rock
TTITLE0=The Train Kept a Rollin'
TTITLE1=真夜中のデート
TTITLE2=Continental
TTITLE3=Johnny You're a Child
TTITLE4=Lonely Night
TTITLE5=Baby Won't You Come Out Tonight
TTITLE6=Good Time Rock'n Roll
TTITLE7=Blue Moon
TTITLE8=Shake Your Money Maker
TTITLE9=Just Your Wife
TTITLE10=Money Honey
TTITLE11=Someday You'll Understand
TTITLE12=Lemonade
TTITLE13=星のない夜
EXTD=
EXTT0=
EXTT1=
EXTT2=
EXTT3=
EXTT4=
EXTT5=
EXTT6=
EXTT7=
EXTT8=
EXTT9=
EXTT10=
EXTT11=
EXTT12=
EXTT13=
PLAYORDER=
